<?xml version="1.0" encoding="utf-8"?>
<!-- Generator: Adobe Illustrator 28.0.0, SVG Export Plug-In . SVG Version: 6.00 Build 0)  -->
<svg version="1.1" id="レイヤー_1" xmlns="http://www.w3.org/2000/svg" xmlns:xlink="http://www.w3.org/1999/xlink" x="0px"
	 y="0px" width="1366px" height="768px" viewBox="0 0 1366 768" style="enable-background:new 0 0 1366 768;" xml:space="preserve">
<style type="text/css">
	.st0{fill:#FFFFFF;stroke:#000000;stroke-miterlimit:10;}
	.st1{fill:#FFFFFF;}
	.st2{fill:#231815;}
	.st3{fill:#FFFFFF;stroke:#231815;stroke-miterlimit:10;}
	.st4{fill:none;stroke:#231815;stroke-miterlimit:10;}
</style>
<path class="st0" d="M79.5,144.5"/>
<g>
	<path class="st1" d="M83.345,142.4l5.045-5.659c-2.944-1.011-5.045-3.689-5.045-6.847c0-4.033,3.426-7.295,7.661-7.295
		s7.661,3.262,7.661,7.295c0,2.855-1.718,5.336-4.235,6.524l5.33,5.982H83.345z"/>
	<path d="M101.105,143H82l5.37-6.023c-2.804-1.307-4.633-4.055-4.633-7.082c0-4.354,3.709-7.895,8.269-7.895
		s8.269,3.541,8.269,7.895c0,2.766-1.469,5.267-3.881,6.694L101.105,143z M84.69,141.8h13.727l-4.973-5.581l0.725-0.342
		c2.399-1.132,3.89-3.424,3.89-5.982c0-3.691-3.164-6.695-7.053-6.695s-7.053,3.004-7.053,6.695c0,2.804,1.863,5.327,4.637,6.28
		l0.853,0.293L84.69,141.8z"/>
</g>
<g>
	<g>
		<polygon class="st1" points="64.126,134.834 62.763,134.834 62.763,142.347 47.768,142.347 47.768,134.834 46.404,134.834 
			55.265,124.056 		"/>
		<path d="M63.444,143H47.086v-7.512H45L55.265,123l10.265,12.488h-2.086V143z M48.449,141.693h13.632v-7.512h0.64l-7.456-9.07
			l-7.456,9.07h0.64V141.693z"/>
	</g>
</g>
<circle class="st1" cx="103" cy="73" r="4"/>
<g>
	<g>
		<path class="st0" d="M129.323,125.267h-1.573v-0.313c0.541,0,1.057,0.078,1.56,0.221
			C129.323,125.202,129.323,125.241,129.323,125.267z"/>
	</g>
	<g>
		<path class="st1" d="M136.871,137.331h-18.242c0-1.238,0.969-2.254,2.176-2.254h0.868v-3.83c0-3.075,2.114-5.628,4.932-6.175
			c0.075-0.808,0.654-1.42,1.346-1.42c0.73,0,1.334,0.664,1.359,1.524c-0.503-0.143-1.019-0.221-1.56-0.221v0.313h1.573
			c0-0.026,0-0.065-0.013-0.091c2.604,0.703,4.516,3.153,4.516,6.071v3.83h0.868C135.902,135.077,136.871,136.093,136.871,137.331z"
			/>
		<path d="M137.5,137.983H118v-0.651c0-1.602,1.259-2.905,2.805-2.905h0.239v-3.179c0-3.188,2.09-5.946,5.027-6.72
			c0.265-0.897,1.011-1.527,1.88-1.527c0.929,0,1.705,0.703,1.926,1.67c2.716,0.929,4.578,3.573,4.578,6.577v3.179h0.239
			c1.547,0,2.805,1.303,2.805,2.905V137.983z M119.392,136.68h16.716c-0.241-0.56-0.784-0.951-1.413-0.951h-1.497v-4.482
			c0-2.428-1.496-4.565-3.681-5.328h-2.395v-0.285l-0.4,0.078c-2.56,0.497-4.419,2.825-4.419,5.536v4.482h-1.497
			C120.176,135.729,119.633,136.12,119.392,136.68z M127.905,124.305c0.045,0.001,0.09,0.003,0.135,0.005
			C127.996,124.303,127.951,124.301,127.905,124.305z"/>
	</g>
	<path class="st0" d="M129.323,125.267h-1.573v-0.313c0.541,0,1.057,0.078,1.56,0.221
		C129.323,125.202,129.323,125.241,129.323,125.267z"/>
	<g>
		<path class="st1" d="M125.548,138.191h5.032c0,1.941-1.132,3.518-2.516,3.518S125.548,140.132,125.548,138.191z"/>
		<path d="M128.065,142.36c-1.734,0-3.145-1.87-3.145-4.169v-0.651h6.29v0.651C131.21,140.49,129.799,142.36,128.065,142.36z
			 M126.229,138.843c0.2,1.252,0.96,2.214,1.835,2.214s1.635-0.962,1.835-2.214H126.229z"/>
	</g>
</g>
<g>
	<path d="M163.555,133.474L163.555,133.474c0.663-0.524,1.648-0.426,2.188,0.217l4.91,5.849c0.54,0.643,0.439,1.598-0.224,2.122l0,0
		c-0.663,0.524-1.648,0.426-2.188-0.217l-4.91-5.849C162.791,134.953,162.892,133.998,163.555,133.474z"/>
	<g>
		<ellipse class="st1" cx="161.795" cy="130.527" rx="7.115" ry="6.901"/>
		<path class="st2" d="M161.784,138.054c-1.36,0-2.701-0.345-3.905-1.019c-3.701-2.073-4.979-6.674-2.847-10.255
			c1.062-1.784,2.787-3.045,4.856-3.548c1.986-0.485,4.053-0.203,5.824,0.789c3.701,2.073,4.979,6.673,2.847,10.254
			c-1.062,1.784-2.787,3.045-4.856,3.548C163.068,137.978,162.424,138.054,161.784,138.054z M161.802,124.248
			c-0.52,0-1.044,0.062-1.561,0.187c-1.702,0.414-3.124,1.458-4.006,2.938c-1.791,3.009-0.732,6.867,2.361,8.6
			c1.445,0.809,3.132,1.039,4.752,0.646c1.702-0.414,3.124-1.458,4.006-2.938c1.791-3.009,0.732-6.867-2.361-8.599
			C164.009,124.53,162.912,124.248,161.802,124.248z"/>
	</g>
</g>
<g>
	<g>
		<path class="st1" d="M197,129c0-2.43-2.313-4.4-5.167-4.4s-5.167,1.97-5.167,4.4c0,8.123,10.333,13.712,10.333,13.712
			s10.333-5.589,10.333-13.712c0-2.43-2.313-4.4-5.167-4.4S197,126.57,197,129"/>
		<path class="st2" d="M197,143.415l-0.342-0.185C196.223,142.994,186,137.369,186,129c0-2.759,2.617-5.004,5.833-5.004
			c2.24,0,4.19,1.089,5.167,2.682c0.977-1.594,2.926-2.682,5.167-2.682c3.217,0,5.833,2.245,5.833,5.004
			c0,8.369-10.223,13.994-10.658,14.23L197,143.415z M191.833,125.203c-2.481,0-4.5,1.703-4.5,3.797
			c0,6.862,7.91,11.951,9.667,12.997c1.757-1.046,9.667-6.135,9.667-12.997c0-2.094-2.019-3.797-4.5-3.797
			c-2.481,0-4.5,1.703-4.5,3.797h-1.333C196.333,126.906,194.314,125.203,191.833,125.203z"/>
	</g>
</g>
<g>
	<g>
		<rect x="225.125" y="164.959" class="st1" width="12.25" height="8.027"/>
		<path d="M237.875,173.486h-13.25v-9.027h13.25V173.486z M225.625,172.486h11.25v-7.027h-11.25V172.486z"/>
	</g>
	<g>
		<rect x="222.5" y="160.5" class="st1" width="17.5" height="4.459"/>
		<path d="M240.5,165.459H222V160h18.5V165.459z M223,164.459h16.5V161H223V164.459z"/>
	</g>
	<g>
		<path d="M236.003,172.554L236.003,172.554c0.317-0.273,0.788-0.222,1.046,0.113l2.347,3.05c0.258,0.335,0.21,0.833-0.107,1.107
			l0,0c-0.317,0.273-0.788,0.222-1.046-0.113l-2.347-3.05C235.638,173.325,235.686,172.827,236.003,172.554z"/>
		<g>
			<ellipse class="st1" cx="235.162" cy="171.018" rx="3.401" ry="3.599"/>
			<path class="st2" d="M235.156,175.118c-0.681,0-1.353-0.188-1.956-0.557c-1.848-1.13-2.486-3.634-1.423-5.583
				c0.529-0.97,1.389-1.656,2.421-1.933c0.998-0.267,2.035-0.114,2.925,0.429c1.848,1.129,2.486,3.633,1.423,5.582l0,0
				c-0.529,0.971-1.389,1.657-2.421,1.933C235.805,175.075,235.479,175.118,235.156,175.118z M235.165,167.918
				c-0.236,0-0.474,0.031-0.708,0.094c-0.765,0.205-1.404,0.718-1.801,1.445c-0.812,1.488-0.333,3.395,1.066,4.25
				c0.653,0.399,1.416,0.512,2.145,0.316c0.765-0.205,1.405-0.718,1.802-1.446v0c0.812-1.487,0.333-3.394-1.066-4.249
				C236.159,168.057,235.665,167.918,235.165,167.918z"/>
		</g>
	</g>
</g>
<g>
	<ellipse class="st1" cx="164.5" cy="167" rx="9.844" ry="9.375"/>
	<path d="M164.5,177c-5.79,0-10.5-4.486-10.5-10s4.71-10,10.5-10s10.5,4.486,10.5,10S170.29,177,164.5,177z M164.5,158.25
		c-5.066,0-9.188,3.925-9.188,8.75s4.121,8.75,9.188,8.75s9.188-3.925,9.188-8.75S169.566,158.25,164.5,158.25z"/>
</g>
<g>
	<path d="M164.163,172v-2.761h-2.684v-0.687h2.684v-1.215h-2.684v-0.687h2.303l-3.106-5.15h1.322l2.153,3.834
		c0.245,0.472,0.381,0.787,0.586,1.245h0.054c0.204-0.401,0.395-0.815,0.64-1.288l2.248-3.791H169l-3.324,5.15h2.275v0.687h-2.67
		v1.215h2.67v0.687h-2.67V172H164.163z"/>
</g>
<g>
	<path class="st1" d="M136,173.545h-12.448l-2.621-9.818C117,162.5,117,162.5,117,162.5"/>
	<polygon class="st2" points="136,174.045 123.167,174.045 120.519,164.122 116.851,162.977 117.149,162.023 121.343,163.332 
		123.936,173.045 136,173.045 	"/>
</g>
<g>
	<ellipse class="st1" cx="126.172" cy="174.773" rx="1.31" ry="1.227"/>
	<path class="st2" d="M126.172,176.5c-0.998,0-1.81-0.775-1.81-1.727c0-0.953,0.812-1.728,1.81-1.728
		c0.999,0,1.811,0.775,1.811,1.728C127.983,175.725,127.171,176.5,126.172,176.5z M126.172,174.045c-0.447,0-0.81,0.326-0.81,0.728
		c0,0.401,0.363,0.727,0.81,0.727s0.811-0.326,0.811-0.727C126.983,174.372,126.619,174.045,126.172,174.045z"/>
</g>
<g>
	<ellipse class="st1" cx="132.724" cy="174.773" rx="1.31" ry="1.227"/>
	<path class="st2" d="M132.724,176.5c-0.999,0-1.811-0.775-1.811-1.727c0-0.953,0.812-1.728,1.811-1.728s1.811,0.775,1.811,1.728
		C134.535,175.725,133.723,176.5,132.724,176.5z M132.724,174.045c-0.447,0-0.811,0.326-0.811,0.728
		c0,0.401,0.364,0.727,0.811,0.727s0.811-0.326,0.811-0.727C133.535,174.372,133.171,174.045,132.724,174.045z"/>
</g>
<path class="st3" d="M119.621,164.955"/>
<path class="st3" d="M121.737,170.477"/>
<g>
	<polyline class="st1" points="122.241,164.955 136,164.955 132.825,171.091 125.517,171.091 	"/>
	<polygon class="st2" points="133.129,171.591 125.517,171.591 125.517,170.591 132.521,170.591 135.178,165.455 122.241,165.455 
		122.241,164.455 136.822,164.455 	"/>
</g>
<g>
	<rect x="222.5" y="128.5" class="st1" width="18" height="9"/>
	<path d="M241,138h-19v-10h19V138z M223,137h17v-8h-17V137z"/>
</g>
<g>
	<path d="M226.354,131.978c-0.049-0.22-0.134-0.426-0.24-0.565c-0.127-0.169-0.472-0.411-0.775-0.411
		c-0.395,0-0.578,0.315-0.578,0.602c-0.007,0.418,0.247,0.55,0.783,0.712c0.923,0.286,1.333,0.683,1.333,1.563
		c0,0.83-0.55,1.387-1.269,1.387c-0.268,0-0.508-0.095-0.663-0.176c-0.162-0.081-0.289-0.146-0.402-0.146s-0.19,0.146-0.254,0.279
		h-0.353v-1.578h0.353c0.035,0.198,0.106,0.36,0.219,0.543c0.176,0.293,0.528,0.536,1.008,0.536c0.296,0,0.515-0.264,0.515-0.558
		c0-0.418-0.374-0.594-0.606-0.697l-0.55-0.235c-0.634-0.279-0.888-0.69-0.888-1.424c0-0.778,0.571-1.262,1.269-1.262
		c0.219,0,0.451,0.044,0.585,0.088c0.113,0.037,0.219,0.074,0.324,0.074c0.085,0,0.141-0.059,0.19-0.11h0.346v1.38H226.354z"/>
	<path d="M228.858,133.725l-0.057,0.22c-0.105,0.433,0,0.749,0.155,0.807l0.183,0.051v0.418h-1.494v-0.418l0.155-0.051
		c0.176-0.059,0.296-0.279,0.494-1.035l0.811-3.12h0.656l0.832,3.354c0.127,0.514,0.247,0.727,0.367,0.771l0.197,0.081v0.418h-1.734
		v-0.418l0.183-0.051c0.184-0.059,0.268-0.25,0.155-0.807l-0.049-0.22H228.858z M229.577,133.072l-0.232-1.123h-0.028l-0.296,1.123
		H229.577z"/>
	<path d="M232.356,131.641c0-0.345-0.084-0.558-0.226-0.587l-0.226-0.037v-0.418h1.699v0.418l-0.226,0.037
		c-0.141,0.029-0.226,0.242-0.226,0.587v2.349c0,0.418,0.099,0.653,0.613,0.653c0.493,0,0.669-0.169,0.669-0.521v-0.403h0.444v1.504
		h-2.975v-0.418l0.226-0.037c0.169-0.037,0.226-0.25,0.226-0.587V131.641z"/>
	<path d="M236.99,133.042v1.204c0,0.293,0.105,0.506,0.465,0.506c0.493,0,0.613-0.375,0.613-0.83v-0.359h0.444v1.659h-2.771v-0.418
		l0.226-0.037c0.169-0.029,0.226-0.25,0.226-0.587v-2.54c0-0.345-0.084-0.558-0.226-0.587l-0.226-0.037v-0.418h2.771v1.6h-0.444
		v-0.308c0-0.551-0.282-0.837-0.613-0.837c-0.36,0-0.465,0.176-0.465,0.514v0.955h0.698v0.521H236.99z"/>
</g>
<rect x="77" y="101" class="st1" width="15" height="18"/>
<g>
	<g>
		<circle class="st1" cx="91.5" cy="167.5" r="10.5"/>
		<path class="st2" d="M91.5,178.5c-6.065,0-11-4.935-11-11s4.935-11,11-11s11,4.935,11,11S97.565,178.5,91.5,178.5z M91.5,157.5
			c-5.514,0-10,4.486-10,10s4.486,10,10,10s10-4.486,10-10S97.014,157.5,91.5,157.5z"/>
	</g>
	<path class="st3" d="M96.836,173.325l-5.673-5.673c0,0-0.069-0.069-0.161-0.161C91,167.175,91,159.478,91,159.478"/>
</g>
<g>
	<g>
		<path class="st1" d="M192.631,163c-0.094,0.399-0.393,0.742-0.923,0.742c-0.531,0-0.83-0.342-0.924-0.742H187v9h3.666
			c-0.196-0.585,0.106-1.36,0.907-1.36c0.802,0,1.103,0.774,0.907,1.36H207v-9H192.631z"/>
		<path class="st2" d="M207.5,172.5h-15.716l0.222-0.659c0.061-0.181,0.034-0.396-0.066-0.535c-0.16-0.222-0.572-0.223-0.732,0
			c-0.101,0.14-0.127,0.354-0.067,0.535l0.221,0.659H186.5v-10h4.681l0.09,0.386c0.083,0.355,0.35,0.355,0.437,0.355
			s0.353,0,0.437-0.356l0.091-0.386H207.5V172.5z M193.032,171.5H206.5v-8h-13.524c-0.245,0.466-0.704,0.742-1.268,0.742
			c-0.555,0-1.02-0.281-1.267-0.742H187.5v8h2.614c0.024-0.281,0.12-0.553,0.281-0.778c0.54-0.75,1.817-0.75,2.356,0
			C192.913,170.947,193.008,171.219,193.032,171.5z"/>
	</g>
	<g>
		<path d="M190.779,167.609c0-0.41-0.149-0.976-0.512-0.976c-0.279,0-0.335,0.228-0.335,0.459v1.1c0,0.327,0.125,0.566,0.4,0.566
			c0.279,0,0.447-0.161,0.447-0.62h0.479c0,0.442-0.265,0.885-0.94,0.885c-0.735,0-1.015-0.529-1.015-1.034v-0.687
			c0-0.434,0.377-0.939,0.963-0.939c0.135,0,0.256,0.025,0.377,0.079c0.074,0.038,0.167,0.07,0.223,0.07
			c0.047,0,0.075-0.025,0.075-0.132h0.316v1.229H190.779z"/>
		<path d="M193.876,168.06c0.004,0.521-0.377,0.963-0.963,0.963c-0.582,0-0.973-0.372-0.968-0.935l0.005-0.79
			c0-0.488,0.381-0.935,0.963-0.935c0.582,0,0.958,0.418,0.963,0.935V168.06z M192.583,168.192c0,0.302,0.051,0.566,0.331,0.566
			c0.274,0,0.331-0.286,0.331-0.566v-1.1c0-0.231-0.056-0.459-0.331-0.459c-0.279,0-0.331,0.228-0.331,0.459V168.192z"/>
		<path d="M194.456,166.394h1.122v0.235l-0.149,0.021c-0.093,0.017-0.149,0.136-0.149,0.331v0.881c0,0.649,0.056,0.897,0.433,0.897
			c0.242,0,0.414-0.132,0.414-0.653v-1.125c0-0.157-0.028-0.314-0.158-0.331l-0.145-0.021v-0.235h0.898v0.235l-0.149,0.021
			c-0.126,0.017-0.154,0.173-0.154,0.331v1.055c0,0.777-0.26,0.988-0.74,0.988c-0.735,0-0.926-0.339-0.926-1.063v-0.98
			c0-0.194-0.056-0.314-0.149-0.331l-0.149-0.021V166.394z"/>
		<path d="M198.022,167.861v0.55c0,0.19,0.037,0.311,0.154,0.331l0.149,0.021v0.236h-1.126v-0.236l0.149-0.021
			c0.112-0.021,0.149-0.141,0.149-0.331v-1.431c0-0.194-0.056-0.314-0.149-0.331l-0.149-0.021v-0.235h1.312
			c0.572,0,0.889,0.223,0.884,0.769c-0.005,0.484-0.4,0.699-0.936,0.699H198.022z M198.022,167.464h0.489
			c0.154,0,0.316-0.145,0.316-0.343c0-0.26-0.163-0.368-0.316-0.368h-0.265c-0.135,0-0.224,0.054-0.224,0.249V167.464z"/>
		<path d="M201.911,168.06c0.004,0.521-0.377,0.963-0.963,0.963c-0.582,0-0.973-0.372-0.968-0.935l0.005-0.79
			c0-0.488,0.381-0.935,0.963-0.935c0.582,0,0.958,0.418,0.963,0.935V168.06z M200.617,168.192c0,0.302,0.051,0.566,0.331,0.566
			c0.274,0,0.331-0.286,0.331-0.566v-1.1c0-0.231-0.056-0.459-0.331-0.459c-0.279,0-0.331,0.228-0.331,0.459V168.192z"/>
		<path d="M203.095,168.411c0,0.19,0.037,0.306,0.154,0.331l0.102,0.021v0.236h-0.852v-0.236l0.149-0.021
			c0.112-0.021,0.149-0.141,0.149-0.331v-1.431c0-0.194-0.056-0.314-0.149-0.331l-0.149-0.021v-0.235h1.042l0.614,1.484h0.005
			v-0.897c0-0.194-0.056-0.314-0.149-0.331l-0.149-0.021v-0.235h0.894v0.235l-0.145,0.021c-0.098,0.017-0.153,0.136-0.153,0.331
			v2.018h-0.54l-0.814-2.018h-0.009V168.411z"/>
	</g>
</g>
<path class="st4" d="M68,197.5"/>
<path class="st4" d="M57.5,208.5"/>
<path class="st4" d="M57.5,209.5"/>
<path class="st4" d="M54.5,209"/>
<path class="st4" d="M53.5,205"/>
<g>
	<path class="st2" d="M54.5,177c-2.528,0-4.91-1.115-6.534-3.06C46.698,172.407,46,170.476,46,168.5c0-4.687,3.813-8.5,8.5-8.5
		s8.5,3.813,8.5,8.5c0,1.976-0.698,3.907-1.965,5.439C59.41,175.885,57.028,177,54.5,177z M54.5,161c-4.136,0-7.5,3.364-7.5,7.5
		c0,1.743,0.616,3.449,1.735,4.801C50.167,175.016,52.269,176,54.5,176s4.333-0.984,5.766-2.7c1.118-1.351,1.734-3.057,1.734-4.8
		C62,164.364,58.636,161,54.5,161z"/>
	<path class="st2" d="M54.5,177c-2.528,0-4.91-1.115-6.534-3.06l-0.33-0.395l0.405-0.318C49.866,171.791,52.16,171,54.5,171
		s4.634,0.791,6.459,2.227l0.405,0.318l-0.33,0.395C59.41,175.885,57.028,177,54.5,177z M49.088,173.695
		C50.502,175.166,52.446,176,54.5,176s3.998-0.834,5.412-2.305C58.328,172.584,56.467,172,54.5,172S50.672,172.584,49.088,173.695z"
		/>
	<path class="st2" d="M54.557,166.247c-2.341,0-4.635-0.791-6.459-2.227l-0.405-0.318l0.33-0.395c1.624-1.945,4.005-3.06,6.534-3.06
		c2.528,0,4.91,1.115,6.534,3.06l0.33,0.395l-0.405,0.318C59.191,165.456,56.897,166.247,54.557,166.247z M49.145,163.552
		c1.584,1.11,3.444,1.694,5.412,1.694s3.828-0.584,5.412-1.694c-1.414-1.472-3.358-2.306-5.412-2.306
		C52.502,161.247,50.558,162.081,49.145,163.552z"/>
	<rect x="46.5" y="168" class="st2" width="16" height="1"/>
	<rect x="54" y="160" class="st2" width="1" height="16"/>
	<path class="st2" d="M54.5,177.04c-1.263,0-2.415-1.169-3.16-3.209c-0.55-1.517-0.84-3.346-0.84-5.291c0-4.767,1.757-8.5,4-8.5
		s4,3.733,4,8.5c0,1.945-0.29,3.774-0.839,5.29C56.915,175.87,55.763,177.04,54.5,177.04z M54.5,161.04c-1.419,0-3,3.08-3,7.5
		c0,1.804,0.277,3.562,0.78,4.949c0.583,1.597,1.414,2.551,2.22,2.551s1.637-0.954,2.221-2.552c0.502-1.387,0.779-3.145,0.779-4.948
		C57.5,164.12,55.919,161.04,54.5,161.04z"/>
</g>
</svg>
